<svg xmlns="http://www.w3.org/2000/svg" viewBox="0 0 1280 720" width="1280" height="720">
  <defs>
    <radialGradient id="bgGlow" cx="50%" cy="40%" r="55%">
      <stop offset="0%" stop-color="#00E5FF" stop-opacity="0.12"/>
      <stop offset="100%" stop-color="#00E5FF" stop-opacity="0"/>
    </radialGradient>
  </defs>
  <rect width="1280" height="720" fill="#0B1220"/>
  <rect width="1280" height="720" fill="url(#bgGlow)"/>
  <path d="M80 0V720 M160 0V720 M240 0V720 M320 0V720 M400 0V720 M480 0V720 M560 0V720 M640 0V720 M720 0V720 M800 0V720 M880 0V720 M960 0V720 M1040 0V720 M1120 0V720 M1200 0V720 M0 80H1280 M0 160H1280 M0 240H1280 M0 320H1280 M0 400H1280 M0 480H1280 M0 560H1280 M0 640H1280" fill="none" stroke="#1A2A44" stroke-width="0.5"/>

  <g id="p10-header">
    <text x="64" y="56" font-family="'Segoe UI','Microsoft YaHei','PingFang SC',sans-serif" font-size="18" font-weight="700" fill="#00E5FF" letter-spacing="4">请求批准 · CALL TO ACTION</text>
    <line x1="64" y1="76" x2="1216" y2="76" stroke="#4A90E2" stroke-width="2"/>
  </g>
  <g id="p10-cta">
    <text x="640" y="210" text-anchor="middle" font-family="'Segoe UI','Microsoft YaHei','PingFang SC',sans-serif" font-size="84" font-weight="bold" fill="#E8F0FB">请求批准：全员推广</text>
    <text x="640" y="266" text-anchor="middle" font-family="'Segoe UI','Microsoft YaHei','PingFang SC',sans-serif" font-size="32" font-weight="600" fill="#A8BCD4">将 AI 转型从试点扩展到全员推广</text>
    <line x1="540" y1="306" x2="740" y2="306" stroke="#00E5FF" stroke-width="3"/>
  </g>
  <g id="p10-commitments">
    <!-- icon: tabler-filled/trophy -->
  <g transform="translate(272, 370) scale(2.33333)" fill="#00E5FF">
    <path d="M17 3a1 1 0 0 1 .993 .883l.007 .117v2.17a3 3 0 1 1 0 5.659v.171a6.002 6.002 0 0 1 -5 5.917v2.083h3a1 1 0 0 1 .117 1.993l-.117 .007h-8a1 1 0 0 1 -.117 -1.993l.117 -.007h3v-2.083a6.002 6.002 0 0 1 -4.996 -5.692l-.004 -.225v-.171a3 3 0 0 1 -3.996 -2.653l-.003 -.176l.005 -.176a3 3 0 0 1 3.995 -2.654l-.001 -2.17a1 1 0 0 1 1 -1h10zm-12 5a1 1 0 1 0 0 2a1 1 0 0 0 0 -2m14 0a1 1 0 1 0 0 2a1 1 0 0 0 0 -2" />
  </g>
    <text x="300" y="460" text-anchor="middle" font-family="'Segoe UI','Microsoft YaHei','PingFang SC',sans-serif" font-size="24" font-weight="700" fill="#E8F0FB">交付能力翻倍</text>
    <!-- icon: tabler-filled/eye -->
  <g transform="translate(612, 370) scale(2.33333)" fill="#00E5FF">
    <path d="M12 4c4.29 0 7.863 2.429 10.665 7.154l.22 .379l.045 .1l.03 .083l.014 .055l.014 .082l.011 .1v.11l-.014 .111a.992 .992 0 0 1 -.026 .11l-.039 .108l-.036 .075l-.016 .03c-2.764 4.836 -6.3 7.38 -10.555 7.499l-.313 .004c-4.396 0 -8.037 -2.549 -10.868 -7.504a1 1 0 0 1 0 -.992c2.831 -4.955 6.472 -7.504 10.868 -7.504zm0 5a3 3 0 1 0 0 6a3 3 0 0 0 0 -6" />
  </g>
    <text x="640" y="460" text-anchor="middle" font-family="'Segoe UI','Microsoft YaHei','PingFang SC',sans-serif" font-size="24" font-weight="700" fill="#E8F0FB">成本下降</text>
    <!-- icon: tabler-filled/star -->
  <g transform="translate(952, 370) scale(2.33333)" fill="#00E5FF">
    <path d="M8.243 7.34l-6.38 .925l-.113 .023a1 1 0 0 0 -.44 1.684l4.622 4.499l-1.09 6.355l-.013 .11a1 1 0 0 0 1.464 .944l5.706 -3l5.693 3l.1 .046a1 1 0 0 0 1.352 -1.1l-1.091 -6.355l4.624 -4.5l.078 -.085a1 1 0 0 0 -.633 -1.62l-6.38 -.926l-2.852 -5.78a1 1 0 0 0 -1.794 0l-2.853 5.78z" />
  </g>
    <text x="980" y="460" text-anchor="middle" font-family="'Segoe UI','Microsoft YaHei','PingFang SC',sans-serif" font-size="24" font-weight="700" fill="#E8F0FB">团队能力升级</text>
  </g>
  <g id="p10-emphasis">
    <line x1="64" y1="520" x2="1216" y2="520" stroke="#243755" stroke-width="1"/>
    <text x="640" y="572" text-anchor="middle" font-family="'Segoe UI','Microsoft YaHei','PingFang SC',sans-serif" font-size="30" font-weight="700" fill="#4A90E2">风险可控，收益已验证——请批准全员推广</text>
    <circle cx="640" cy="630" r="26" fill="#00E5FF" fill-opacity="0.18"/>
    <!-- icon: tabler-filled/circle-check -->
  <g transform="translate(616, 606) scale(2)" fill="#00E5FF">
    <path d="M17 3.34a10 10 0 1 1 -14.995 8.984l-.005 -.324l.005 -.324a10 10 0 0 1 14.995 -8.336zm-1.293 5.953a1 1 0 0 0 -1.32 -.083l-.094 .083l-3.293 3.292l-1.293 -1.292l-.094 -.083a1 1 0 0 0 -1.403 1.403l.083 .094l2 2l.094 .083a1 1 0 0 0 1.226 0l.094 -.083l4 -4l.083 -.094a1 1 0 0 0 -.083 -1.32z" />
  </g>
  </g>
  <g id="p10-footer">
    <text x="64" y="688" font-family="'Segoe UI','Microsoft YaHei','PingFang SC',sans-serif" font-size="16" fill="#6B83A1">AI 战略转型汇报 · 致管理层 · 2026.07</text>
    <text x="1216" y="688" text-anchor="end" font-family="'Segoe UI','Microsoft YaHei','PingFang SC',sans-serif" font-size="16" fill="#6B83A1">10 / 10</text>
  </g>
</svg>
